<mxfile host="app.diagrams.net" modified="2022-03-17T13:52:51.082Z" agent="5.0 (Windows NT 10.0; Win64; x64) AppleWebKit/537.36 (KHTML, like Gecko) Chrome/99.0.4844.74 Safari/537.36" etag="5JGbVdZ7mrb6FADSw0j7" version="17.1.3" type="github">
  <diagram id="5j3R7PeJVRbauA3fTPDW" name="Page-1">
    <mxGraphModel dx="868" dy="482" grid="1" gridSize="10" guides="1" tooltips="1" connect="1" arrows="1" fold="1" page="1" pageScale="1" pageWidth="827" pageHeight="1169" math="0" shadow="0">
      <root>
        <mxCell id="0" />
        <mxCell id="1" parent="0" />
        <mxCell id="V0wGZRFkanxtoxm1Rwsj-1" value="inicio" style="rounded=1;whiteSpace=wrap;html=1;" vertex="1" parent="1">
          <mxGeometry x="80" y="90" width="120" height="60" as="geometry" />
        </mxCell>
        <mxCell id="V0wGZRFkanxtoxm1Rwsj-2" value="fim" style="rounded=1;whiteSpace=wrap;html=1;" vertex="1" parent="1">
          <mxGeometry x="500" y="90" width="120" height="60" as="geometry" />
        </mxCell>
        <mxCell id="V0wGZRFkanxtoxm1Rwsj-3" value="entrada" style="shape=parallelogram;perimeter=parallelogramPerimeter;whiteSpace=wrap;html=1;fixedSize=1;" vertex="1" parent="1">
          <mxGeometry x="80" y="230" width="120" height="60" as="geometry" />
        </mxCell>
        <mxCell id="V0wGZRFkanxtoxm1Rwsj-4" value="saida" style="shape=document;whiteSpace=wrap;html=1;boundedLbl=1;" vertex="1" parent="1">
          <mxGeometry x="500" y="210" width="120" height="80" as="geometry" />
        </mxCell>
        <mxCell id="V0wGZRFkanxtoxm1Rwsj-5" value="processamento" style="rounded=0;whiteSpace=wrap;html=1;" vertex="1" parent="1">
          <mxGeometry x="80" y="370" width="120" height="60" as="geometry" />
        </mxCell>
        <mxCell id="V0wGZRFkanxtoxm1Rwsj-6" value="decisao" style="rhombus;whiteSpace=wrap;html=1;" vertex="1" parent="1">
          <mxGeometry x="550" y="270" width="80" height="80" as="geometry" />
        </mxCell>
        <mxCell id="V0wGZRFkanxtoxm1Rwsj-20" style="edgeStyle=orthogonalEdgeStyle;rounded=0;orthogonalLoop=1;jettySize=auto;html=1;exitX=0.5;exitY=1;exitDx=0;exitDy=0;entryX=0.5;entryY=0;entryDx=0;entryDy=0;" edge="1" parent="1" source="V0wGZRFkanxtoxm1Rwsj-8" target="V0wGZRFkanxtoxm1Rwsj-9">
          <mxGeometry relative="1" as="geometry" />
        </mxCell>
        <mxCell id="V0wGZRFkanxtoxm1Rwsj-8" value="a=b" style="rounded=0;whiteSpace=wrap;html=1;" vertex="1" parent="1">
          <mxGeometry x="510" y="585" width="120" height="60" as="geometry" />
        </mxCell>
        <mxCell id="V0wGZRFkanxtoxm1Rwsj-9" value="c" style="shape=document;whiteSpace=wrap;html=1;boundedLbl=1;" vertex="1" parent="1">
          <mxGeometry x="510" y="700" width="120" height="80" as="geometry" />
        </mxCell>
        <mxCell id="V0wGZRFkanxtoxm1Rwsj-19" style="edgeStyle=orthogonalEdgeStyle;rounded=0;orthogonalLoop=1;jettySize=auto;html=1;exitX=0.5;exitY=1;exitDx=0;exitDy=0;entryX=0.5;entryY=0;entryDx=0;entryDy=0;" edge="1" parent="1" source="V0wGZRFkanxtoxm1Rwsj-10" target="V0wGZRFkanxtoxm1Rwsj-8">
          <mxGeometry relative="1" as="geometry" />
        </mxCell>
        <mxCell id="V0wGZRFkanxtoxm1Rwsj-10" value="a b" style="shape=parallelogram;perimeter=parallelogramPerimeter;whiteSpace=wrap;html=1;fixedSize=1;" vertex="1" parent="1">
          <mxGeometry x="510" y="480" width="120" height="60" as="geometry" />
        </mxCell>
        <mxCell id="V0wGZRFkanxtoxm1Rwsj-18" style="edgeStyle=orthogonalEdgeStyle;rounded=0;orthogonalLoop=1;jettySize=auto;html=1;exitX=0.5;exitY=1;exitDx=0;exitDy=0;entryX=0.583;entryY=-0.033;entryDx=0;entryDy=0;entryPerimeter=0;" edge="1" parent="1" source="V0wGZRFkanxtoxm1Rwsj-11" target="V0wGZRFkanxtoxm1Rwsj-10">
          <mxGeometry relative="1" as="geometry" />
        </mxCell>
        <mxCell id="V0wGZRFkanxtoxm1Rwsj-11" value="inicio" style="rounded=1;whiteSpace=wrap;html=1;" vertex="1" parent="1">
          <mxGeometry x="520" y="360" width="120" height="60" as="geometry" />
        </mxCell>
        <mxCell id="V0wGZRFkanxtoxm1Rwsj-29" style="edgeStyle=orthogonalEdgeStyle;rounded=0;orthogonalLoop=1;jettySize=auto;html=1;entryX=0.5;entryY=0;entryDx=0;entryDy=0;" edge="1" parent="1" source="V0wGZRFkanxtoxm1Rwsj-21" target="V0wGZRFkanxtoxm1Rwsj-22">
          <mxGeometry relative="1" as="geometry" />
        </mxCell>
        <mxCell id="V0wGZRFkanxtoxm1Rwsj-21" value="inicio" style="rounded=1;whiteSpace=wrap;html=1;" vertex="1" parent="1">
          <mxGeometry x="80" y="490" width="120" height="60" as="geometry" />
        </mxCell>
        <mxCell id="V0wGZRFkanxtoxm1Rwsj-28" style="edgeStyle=orthogonalEdgeStyle;rounded=0;orthogonalLoop=1;jettySize=auto;html=1;entryX=0.5;entryY=0;entryDx=0;entryDy=0;" edge="1" parent="1" source="V0wGZRFkanxtoxm1Rwsj-22" target="V0wGZRFkanxtoxm1Rwsj-23">
          <mxGeometry relative="1" as="geometry" />
        </mxCell>
        <mxCell id="V0wGZRFkanxtoxm1Rwsj-22" value="2,3" style="shape=parallelogram;perimeter=parallelogramPerimeter;whiteSpace=wrap;html=1;fixedSize=1;" vertex="1" parent="1">
          <mxGeometry x="80" y="600" width="120" height="60" as="geometry" />
        </mxCell>
        <mxCell id="V0wGZRFkanxtoxm1Rwsj-24" value="Falso" style="edgeStyle=orthogonalEdgeStyle;rounded=0;orthogonalLoop=1;jettySize=auto;html=1;" edge="1" parent="1" source="V0wGZRFkanxtoxm1Rwsj-23">
          <mxGeometry relative="1" as="geometry">
            <mxPoint x="290" y="750" as="targetPoint" />
          </mxGeometry>
        </mxCell>
        <mxCell id="V0wGZRFkanxtoxm1Rwsj-25" value="Verdadeiro" style="edgeStyle=orthogonalEdgeStyle;rounded=0;orthogonalLoop=1;jettySize=auto;html=1;" edge="1" parent="1" source="V0wGZRFkanxtoxm1Rwsj-23">
          <mxGeometry relative="1" as="geometry">
            <mxPoint x="140" y="890" as="targetPoint" />
          </mxGeometry>
        </mxCell>
        <mxCell id="V0wGZRFkanxtoxm1Rwsj-23" value="2&amp;gt;3" style="rhombus;whiteSpace=wrap;html=1;" vertex="1" parent="1">
          <mxGeometry x="100" y="710" width="80" height="80" as="geometry" />
        </mxCell>
        <mxCell id="V0wGZRFkanxtoxm1Rwsj-35" style="edgeStyle=orthogonalEdgeStyle;rounded=0;orthogonalLoop=1;jettySize=auto;html=1;entryX=0.45;entryY=-0.05;entryDx=0;entryDy=0;entryPerimeter=0;" edge="1" parent="1" source="V0wGZRFkanxtoxm1Rwsj-30" target="V0wGZRFkanxtoxm1Rwsj-33">
          <mxGeometry relative="1" as="geometry" />
        </mxCell>
        <mxCell id="V0wGZRFkanxtoxm1Rwsj-30" value="2" style="shape=document;whiteSpace=wrap;html=1;boundedLbl=1;" vertex="1" parent="1">
          <mxGeometry x="294" y="710" width="120" height="80" as="geometry" />
        </mxCell>
        <mxCell id="V0wGZRFkanxtoxm1Rwsj-37" style="edgeStyle=orthogonalEdgeStyle;rounded=0;orthogonalLoop=1;jettySize=auto;html=1;entryX=0;entryY=0.5;entryDx=0;entryDy=0;" edge="1" parent="1" source="V0wGZRFkanxtoxm1Rwsj-31" target="V0wGZRFkanxtoxm1Rwsj-33">
          <mxGeometry relative="1" as="geometry" />
        </mxCell>
        <mxCell id="V0wGZRFkanxtoxm1Rwsj-31" value="3" style="shape=document;whiteSpace=wrap;html=1;boundedLbl=1;" vertex="1" parent="1">
          <mxGeometry x="80" y="890" width="120" height="80" as="geometry" />
        </mxCell>
        <mxCell id="V0wGZRFkanxtoxm1Rwsj-33" value="fim" style="rounded=1;whiteSpace=wrap;html=1;" vertex="1" parent="1">
          <mxGeometry x="300" y="900" width="120" height="60" as="geometry" />
        </mxCell>
      </root>
    </mxGraphModel>
  </diagram>
</mxfile>
